#define chat_width 25
#define chat_height 16
static unsigned char chat_bits[] = {
   0x00, 0x38, 0x00, 0x00, 0x00, 0x7c, 0x00, 0x00, 0x70, 0xfe, 0x1c, 0x00,
   0xf0, 0xfe, 0x1e, 0x00, 0xf0, 0xfe, 0x1e, 0x00, 0xf0, 0xfe, 0x1e, 0x00,
   0xf0, 0xfe, 0x1e, 0x00, 0x70, 0x7c, 0x1c, 0x00, 0x70, 0x7c, 0x1c, 0x00,
   0xfc, 0x7c, 0x7e, 0x00, 0x7e, 0xff, 0xf9, 0x00, 0x9f, 0xff, 0xf3, 0x01,
   0xef, 0xff, 0xef, 0x01, 0xf0, 0xff, 0x1f, 0x00, 0xf0, 0xff, 0x1f, 0x00,
   0xf0, 0xff, 0x1f, 0x00 };
