#define film_width 13
#define film_height 16
static unsigned char film_bits[] = {
   0xff, 0x1f, 0x05, 0x14, 0x07, 0x1c, 0x07, 0x1c, 0x05, 0x14, 0x07, 0x1c,
   0x05, 0x14, 0xff, 0x1f, 0xff, 0x1f, 0x05, 0x14, 0x07, 0x1c, 0x05, 0x14,
   0x07, 0x1c, 0x07, 0x1c, 0x05, 0x14, 0xff, 0x1f };
