#define stopwatch_width 14
#define stopwatch_height 16
static unsigned char stopwatch_bits[] = {
   0xe0, 0x00, 0xe0, 0x00, 0x00, 0x00, 0xf0, 0x33, 0xfc, 0x17, 0x0e, 0x0e,
   0x46, 0x1c, 0x43, 0x18, 0x43, 0x18, 0xe3, 0x18, 0x43, 0x18, 0x03, 0x18,
   0x06, 0x1c, 0x0e, 0x0e, 0xfc, 0x07, 0xf0, 0x01 };
