#define thunderbird_width 24
#define thunderbird_height 16
static char thunderbird_bits[] = {
  0xFF, 0xFF, 0xFF, 0xFE, 0xFF, 0x7F, 0xFD, 0xFF, 0xBF, 0xFB, 0xFF, 0xDF, 
  0xF7, 0xFF, 0xEF, 0xEF, 0xFF, 0xF7, 0xDF, 0xFF, 0xFB, 0xBF, 0xFF, 0xFD, 
  0x3F, 0xFF, 0xFC, 0xDF, 0x7E, 0xFB, 0xEF, 0xBD, 0xF7, 0xF7, 0xDB, 0xEF, 
  0xFB, 0xE7, 0xDF, 0xFD, 0xFF, 0xBF, 0xFE, 0xFF, 0x7F, 0xFF, 0xFF, 0xFF, 
  };
