#define vim_width 18
#define vim_height 16
static unsigned char vim_bits[] = {
   0x00, 0x80, 0x01, 0x00, 0x80, 0x03, 0xfc, 0x67, 0x03, 0xfe, 0xf7, 0x00,
   0x03, 0xf8, 0x00, 0x01, 0x7c, 0x00, 0x01, 0x3e, 0x00, 0x01, 0x1f, 0x00,
   0x81, 0x0f, 0x00, 0x81, 0x27, 0x00, 0x41, 0x13, 0x00, 0xe1, 0x10, 0x00,
   0x61, 0x10, 0x00, 0x03, 0x10, 0x00, 0xff, 0x1f, 0x00, 0xfe, 0x0f, 0x00 };
