#define web_width 16
#define web_height 16
static unsigned char web_bits[] = {
   0xc0, 0x03, 0xf0, 0x0f, 0xfc, 0x3f, 0x7c, 0x20, 0x7e, 0x40, 0xde, 0x40,
   0xff, 0x81, 0x1f, 0x80, 0x1f, 0xfa, 0x1f, 0xfc, 0x7e, 0x7c, 0x7e, 0x7e,
   0x7c, 0x3e, 0x7c, 0x3e, 0xf0, 0x0f, 0xc0, 0x03 };
